<?xml version="1.0" encoding="utf-8"?>
<!-- Generator: Adobe Illustrator 16.0.0, SVG Export Plug-In . SVG Version: 6.00 Build 0)  -->
<!DOCTYPE svg PUBLIC "-//W3C//DTD SVG 1.1//EN" "http://www.w3.org/Graphics/SVG/1.1/DTD/svg11.dtd">
<svg version="1.1" id="Layer_1" xmlns="http://www.w3.org/2000/svg" xmlns:xlink="http://www.w3.org/1999/xlink" x="0px" y="0px"
	 width="200px" height="231.25px" viewBox="0 0 200 231.25" enable-background="new 0 0 200 231.25" xml:space="preserve">
<path fill="#FCFCFC" d="M100,7.165L5,61.895v109.46l95,54.729l95-54.729V61.895L100,7.165z M177,160.865l-77,44.229l-77-44.229
	v-88.48l77-44.23l77,44.23V160.865z"/>
<polygon fill="none" points="177,72.385 177,160.865 100,205.095 23,160.865 23,72.385 100,28.155 "/>
<polygon fill="none" points="177,72.385 177,160.865 100,205.095 23,160.865 23,72.385 100,28.155 "/>
<g>
	<path fill-rule="evenodd" clip-rule="evenodd" fill="#FCFCFC" d="M162.35,140.132c-1.252,0.068-2.222,0.167-3.19,0.167
		c-17.366,0.009-34.732-0.052-52.099,0.069c-2.664,0.019-3.392-0.722-3.331-3.355c0.176-7.481,0.197-14.973-0.004-22.453
		c-0.081-2.983,0.966-3.68,3.77-3.651c12.674,0.129,25.351,0.074,38.027,0.045c5.516-0.012,7.088-1.744,7.112-7.17
		c0.01-2.344-0.845-3.169-3.166-3.132c-6.385,0.101-12.774,0.033-19.162,0.033c-7.885-0.001-15.77-0.064-23.654,0.037
		c-2.237,0.028-2.902-0.754-2.906-2.953c-0.015-6.888-0.096-6.888,6.907-6.888c15.869,0,31.739,0,47.608,0c1.183,0,2.366,0,4.088,0
		c0,1.982,0,3.727,0,5.471c0,3.992-0.106,7.988,0.036,11.976c0.104,2.941-0.271,5.572-3.402,7.674
		c3.838,1.896,3.391,5.186,3.374,8.36C162.331,129.533,162.35,134.703,162.35,140.132z M133.011,130.507
		c5.582,0,11.166,0.072,16.744-0.071c0.935-0.023,2.151-0.342,2.673-1.529c1.457-4.724-1.181-8.139-6.126-8.157
		c-8.772-0.031-17.544-0.081-26.315,0.012c-7.223,0-6.445-1.106-6.445,6.826c0,2.6,0.521,2.947,3.023,2.947
		C122.046,130.535,127.529,130.508,133.011,130.507z"/>
	<path fill-rule="evenodd" clip-rule="evenodd" fill="#FCFCFC" d="M37.65,140.209c0-4.426,0-8.487,0-12.549
		c0-4.59,0.114-9.185-0.046-13.769c-0.083-2.404,0.81-3.073,3.113-3.059c12.873,0.082,25.746,0.055,38.619,0.027
		c5.576-0.012,7.095-1.688,7.16-7.116c0.03-2.593-1.073-3.2-3.419-3.188c-13.372,0.071-26.744,0.053-40.116,0.024
		c-5.977-0.012-5.25,0.675-5.308-5.229c-0.013-1.375-0.002-2.75-0.002-4.343c19.612,0,38.894,0,58.349,0
		c0,7.409,0.362,14.681-0.13,21.896c-0.315,4.611-4.849,7.695-9.957,7.72c-11.476,0.055-22.952,0.019-34.428,0.022
		c-4.047,0.001-4.051,0.004-4.056,4.125c-0.006,4.291-0.07,8.583,0.023,12.873c0.042,1.957-0.701,2.686-2.633,2.592
		C42.557,140.125,40.287,140.209,37.65,140.209z"/>
</g>
</svg>
